<?xml version="1.0" encoding="UTF-8" standalone="no"?>
<!-- Created with Inkscape (http://www.inkscape.org/) -->

<svg
   xmlns:dc="http://purl.org/dc/elements/1.1/"
   xmlns:cc="http://creativecommons.org/ns#"
   xmlns:rdf="http://www.w3.org/1999/02/22-rdf-syntax-ns#"
   xmlns:svg="http://www.w3.org/2000/svg"
   xmlns="http://www.w3.org/2000/svg"
   xmlns:sodipodi="http://sodipodi.sourceforge.net/DTD/sodipodi-0.dtd"
   xmlns:inkscape="http://www.inkscape.org/namespaces/inkscape"
   width="4212.9922"
   height="2979.9211"
   id="svg2"
   version="1.1"
   inkscape:version="0.48.3.1 r9886"
   sodipodi:docname="parcours1.svg">
  <defs
     id="defs4" />
  <sodipodi:namedview
     id="base"
     pagecolor="#ffffff"
     bordercolor="#666666"
     borderopacity="1.0"
     inkscape:pageopacity="0.0"
     inkscape:pageshadow="2"
     inkscape:zoom="0.175"
     inkscape:cx="2772.0176"
     inkscape:cy="1028.4066"
     inkscape:document-units="px"
     inkscape:current-layer="layer1"
     showgrid="false"
     objecttolerance="10000"
     guidetolerance="10000"
     inkscape:snap-global="true"
     inkscape:window-width="1280"
     inkscape:window-height="951"
     inkscape:window-x="0"
     inkscape:window-y="25"
     inkscape:window-maximized="1"
     inkscape:snap-nodes="true"
     inkscape:snap-bbox="false"
     inkscape:snap-grids="false"
     inkscape:bbox-paths="false"
     inkscape:bbox-nodes="false"
     inkscape:object-paths="true"
     inkscape:snap-page="false"
     inkscape:snap-to-guides="true" />
  <metadata
     id="metadata7">
    <rdf:RDF>
      <cc:Work
         rdf:about="">
        <dc:format>image/svg+xml</dc:format>
        <dc:type
           rdf:resource="http://purl.org/dc/dcmitype/StillImage" />
        <dc:title />
      </cc:Work>
    </rdf:RDF>
  </metadata>
  <g
     inkscape:label="Layer 1"
     inkscape:groupmode="layer"
     id="layer1"
     transform="translate(0,1927.5592)">
    <path
       style="fill:#000000;fill-opacity:1"
       d="m 3631.6584,269.94014 c 0,-89.27562 -35.4665,-174.903849 -98.5938,-238.031251 l 37.5626,-37.5624994 C 3643.7219,67.441269 3684.8146,166.56837 3684.8146,269.94014 l -53.1562,0 z"
       id="path3387"
       inkscape:connector-curvature="0" />
    <path
       inkscape:connector-curvature="0"
       style="fill:#000000;fill-opacity:1"
       d="m 2781.4084,446.94007 c 89.2756,0 174.9039,35.46651 238.0312,98.59382 l 37.5626,-37.5626 c -73.0949,-73.09471 -172.222,-114.18742 -275.5938,-114.18742 l 0,53.1562 z"
       id="path3387-6" />
    <path
       inkscape:connector-curvature="0"
       style="fill:#000000;fill-opacity:1"
       d="m 2781.8779,446.9404 c -89.2756,0 -174.9039,35.46648 -238.0313,98.59379 l -37.5624,-37.5626 c 73.0948,-73.09468 172.2219,-114.1874 275.5937,-114.1874 l 0,53.15621 z"
       id="path3387-6-5" />
    <path
       inkscape:connector-curvature="0"
       style="fill:#000000;fill-opacity:1"
       d="m 3295.0334,606.56509 c -89.2757,0 -174.9039,-35.4665 -238.0313,-98.5938 l -37.5625,37.5626 c 73.0949,73.0947 172.222,114.1874 275.5938,114.1874 l 0,-53.1562 z"
       id="path3387-6-5-9" />
    <path
       inkscape:connector-curvature="0"
       style="fill:#000000;fill-opacity:1"
       d="m 3295.0334,606.56509 c 89.2756,0 174.9038,-35.4665 238.0312,-98.5938 l 37.5626,37.5625 c -73.095,73.0948 -172.2221,114.1875 -275.5938,114.1875 l 0,-53.1562 z"
       id="path3387-6-3" />
    <path
       style="fill:#000000;fill-opacity:1"
       d="m 3631.6584,269.94008 c 0,89.27562 -35.4665,174.90385 -98.5938,238.03121 l 37.5626,37.5625 c 73.0947,-73.09484 114.1874,-172.22194 114.1874,-275.59371 l -53.1562,0 z"
       id="path3387-3-4-3"
       inkscape:connector-curvature="0" />
    <path
       inkscape:connector-curvature="0"
       style="fill:#000000;fill-opacity:1"
       d="m 2268.253,606.56539 c 89.2756,0 174.9038,-35.4665 238.0312,-98.5938 l 37.5626,37.5626 c -73.095,73.0947 -172.2221,114.1875 -275.5938,114.1875 l 0,-53.1563 z"
       id="path3387-6-3-4" />
    <path
       inkscape:connector-curvature="0"
       style="fill:#000000;fill-opacity:1"
       d="m 3295.0333,-66.684891 c 89.2757,0 174.9039,35.46651 238.0313,98.59381 l 37.5626,-37.5625894 C 3497.5322,-78.748381 3398.4051,-119.84109 3295.0333,-119.84109 l 0,53.156199 z"
       id="path3387-6-1" />
    <path
       style="fill:#000000;fill-opacity:1"
       d="m 2781.2538,-119.8345 513.7795,0 0,53.149609 -513.7795,0 z"
       id="rect3384-6"
       inkscape:connector-curvature="0"
       sodipodi:nodetypes="ccccc" />
    <path
       inkscape:connector-curvature="0"
       style="fill:#000000;fill-opacity:1"
       d="m 2781.2538,-66.678291 c -89.2757,0 -174.9039,35.46648 -238.0313,98.59378 L 2505.6601,-5.6471004 C 2578.7549,-78.741781 2677.882,-119.8345 2781.2538,-119.8345 l 0,53.156209 z"
       id="path3387-6-5-5" />
    <path
       inkscape:connector-curvature="0"
       style="fill:#000000;fill-opacity:1"
       d="m 2267.6289,92.946709 c 89.2756,0 174.9038,-35.46651 238.0312,-98.5938095 l 37.5626,37.5625895 C 2470.1277,105.0102 2371.0006,146.10291 2267.6289,146.10291 l 0,-53.156201 z"
       id="path3387-6-3-4-5" />
    <path
       inkscape:connector-curvature="0"
       style="fill:#000000;fill-opacity:1"
       d="m 2267.6289,92.946713 c -89.2757,0 -174.9039,-35.466502 -238.0313,-98.5938019 l -37.5625,37.5625999 c 73.0949,73.094699 172.222,114.187399 275.5938,114.187399 l 0,-53.156197 z"
       id="path3387-6-5-9-0" />
    <path
       inkscape:connector-curvature="0"
       style="fill:#000000;fill-opacity:1"
       d="m 1754.067,-66.615169 c 89.2756,0 174.9039,35.4665 238.0312,98.5938 l 37.5626,-37.5626006 C 1956.5659,-78.678669 1857.4388,-119.77138 1754.067,-119.77138 l 0,53.156211 z"
       id="path3387-6-6" />
    <path
       style="fill:#000000;fill-opacity:1"
       d="m 1286.3962,269.94039 c 0,89.2756 35.4665,174.9039 98.5938,238.0313 l -37.5626,37.5625 C 1274.3327,472.43929 1233.24,373.31219 1233.24,269.94039 l 53.1562,0 z"
       id="path3387-3-4-7-0"
       inkscape:connector-curvature="0" />
    <path
       inkscape:connector-curvature="0"
       style="fill:#000000;fill-opacity:1"
       d="m 1623.0213,606.56549 c -89.2757,0 -174.9039,-35.4665 -238.0313,-98.5938 l -37.5625,37.5626 c 73.0949,73.0947 172.222,114.1874 275.5938,114.1874 l 0,-53.1562 z"
       id="path3387-6-5-9-0-0" />
    <path
       style="fill:#000000;fill-opacity:1"
       d="m 581.33379,-456.38987 c 0,89.2756 35.4665,174.9039 98.5938,238.0313 l -37.5626,37.5625 c -73.0947,-73.0949 -114.18739,-172.222 -114.18739,-275.5938 l 53.15619,0 z"
       id="path3387-3-4-7-0-7"
       inkscape:connector-curvature="0" />
    <path
       inkscape:connector-curvature="0"
       style="fill:#000000;fill-opacity:1"
       d="m 917.95889,-119.76477 c -89.2757,0 -174.9039,-35.4665 -238.0313,-98.5938 l -37.5625,37.5626 c 73.0949,73.0947 172.222,114.187401 275.5938,114.187401 l 0,-53.156201 z"
       id="path3387-6-5-9-0-0-0" />
    <path
       inkscape:connector-curvature="0"
       style="fill:#000000;fill-opacity:1"
       d="m 917.45317,-1481.7627 c -89.2757,0 -174.9039,35.4665 -238.0313,98.5938 l -37.5624,-37.5626 c 73.0948,-73.0947 172.2219,-114.1874 275.5937,-114.1874 l 0,53.1562 z"
       id="path3387-6-5-5-5" />
    <path
       style="fill:#000000;fill-opacity:1"
       d="m 581.3338,-1145.6423 c 0,-89.2756 35.4665,-174.9038 98.5937,-238.0312 l -37.5625,-37.5625 c -73.0947,73.0949 -114.1874,172.222 -114.1874,275.5937 l 53.1562,0 z"
       id="path3387-3-6"
       inkscape:connector-curvature="0" />
    <path
       inkscape:connector-curvature="0"
       style="fill:#000000;fill-opacity:1"
       d="m 1620.7003,-956.21874 c -89.2757,0 -174.9039,35.4665 -238.0313,98.5938 l -37.5624,-37.5626 c 73.0948,-73.0947 172.2219,-114.18736 275.5937,-114.18736 l 0,53.15616 z"
       id="path3387-6-5-5-5-7" />
    <path
       style="fill:#000000;fill-opacity:1"
       d="m 1286.3962,-621.89224 c 0,-89.2756 35.4665,-174.9038 98.5937,-238.03121 l -37.5625,-37.56249 c -73.0947,73.0949 -114.1874,172.222 -114.1874,275.5937 l 53.1562,0 z"
       id="path3387-3-6-3"
       inkscape:connector-curvature="0" />
    <path
       style="fill:#000000;fill-opacity:1"
       d="m 3631.6584,-1145.1377 c 0,-89.2756 -35.4665,-174.9038 -98.5938,-238.0312 l 37.5626,-37.5625 c 73.0947,73.0949 114.1874,172.222 114.1874,275.5937 l -53.1562,0 z"
       id="path3387-8"
       inkscape:connector-curvature="0" />
    <path
       inkscape:connector-curvature="0"
       style="fill:#000000;fill-opacity:1"
       d="m 3294.861,-572.99886 c 89.2756,0 174.9038,-35.4665 238.0312,-98.5938 l 37.5626,37.5625 c -73.095,73.0948 -172.2221,114.1875 -275.5938,114.1875 l 0,-53.1562 z"
       id="path3387-6-3-2" />
    <path
       style="fill:#000000;fill-opacity:1"
       d="m 3631.486,-909.62387 c 0,89.2756 -35.4665,174.90381 -98.5938,238.03121 l 37.5626,37.5625 c 73.0947,-73.0949 114.1874,-172.22201 114.1874,-275.59371 l -53.1562,0 z"
       id="path3387-3-4-3-6"
       inkscape:connector-curvature="0" />
    <path
       inkscape:connector-curvature="0"
       style="fill:#000000;fill-opacity:1"
       d="m 3295.0333,-1481.7627 c 89.2757,0 174.9039,35.4665 238.0313,98.5938 l 37.5626,-37.5626 c -73.095,-73.0947 -172.2221,-114.1874 -275.5939,-114.1874 l 0,53.1562 z"
       id="path3387-6-1-5" />
    <path
       inkscape:connector-curvature="0"
       style="fill:#000000;fill-opacity:1"
       d="m 1620.7003,-956.21874 c 89.2757,0 174.9039,35.4665 238.0313,98.5938 l 37.5626,-37.5626 c -73.095,-73.0947 -172.2221,-114.18726 -275.5939,-114.18726 l 0,53.15606 z"
       id="path3387-6-1-5-4" />
    <path
       inkscape:connector-curvature="0"
       style="fill:#000000;fill-opacity:1"
       d="m 2357.4012,-572.99886 c -89.2757,0 -174.9039,-35.4665 -238.0313,-98.5938 l -37.5625,37.5626 c 73.0949,73.0947 172.222,114.1874 275.5938,114.1874 l 0,-53.1562 z"
       id="path3387-6-5-9-0-0-5" />
    <path
       style="fill:#000000;fill-opacity:1"
       d="m 3631.6584,-909.62387 0,-235.51383 53.1496,0 0,235.51383 z"
       id="rect3384-9-4-9"
       inkscape:connector-curvature="0"
       sodipodi:nodetypes="ccccc" />
    <path
       style="fill:#000000;fill-opacity:1"
       d="m 2357.4012,-572.99886 937.4598,0 0,53.1496 -937.4598,0 z"
       id="rect3384-8"
       inkscape:connector-curvature="0"
       sodipodi:nodetypes="ccccc" />
    <path
       style="fill:#000000;fill-opacity:1"
       d="m 2044.205,-746.75756 75.1649,75.1649 -37.5825,37.5824 -75.1649,-75.1648 z"
       id="rect3384-0-9-3"
       inkscape:connector-curvature="0"
       sodipodi:nodetypes="ccccc" />
    <path
       style="fill:#000000;fill-opacity:1"
       d="m 1971.1995,-819.76303 75.1649,75.1649 -37.5825,37.5824 -75.1649,-75.1648 z"
       id="rect3384-0-9-3-0"
       inkscape:connector-curvature="0"
       sodipodi:nodetypes="ccccc" />
    <path
       style="fill:#000000;fill-opacity:1"
       d="m 1896.0346,-894.92793 75.1649,75.1649 -37.5825,37.5824 -75.1649,-75.1648 z"
       id="rect3384-0-9-3-2"
       inkscape:connector-curvature="0"
       sodipodi:nodetypes="ccccc" />
    <path
       style="fill:#000000;fill-opacity:1"
       d="m 917.95889,-119.76477 836.10811,0 0,53.149601 -836.10811,0 z"
       id="rect3384-23"
       inkscape:connector-curvature="0"
       sodipodi:nodetypes="ccccc" />
    <path
       style="fill:#000000;fill-opacity:1"
       d="m 528.1776,-456.38987 0,-689.25243 53.15619,0 0,689.25243 z"
       id="rect3384-9-4-6"
       inkscape:connector-curvature="0"
       sodipodi:nodetypes="ccccc" />
    <path
       style="fill:#000000;fill-opacity:1"
       d="m 1233.24,269.94039 0,-891.83263 53.1562,0 0,891.83263 z"
       id="rect3384-9-4-7"
       inkscape:connector-curvature="0"
       sodipodi:nodetypes="ccccc" />
    <path
       style="fill:#000000;fill-opacity:1"
       d="m 1623.0213,606.57209 645.2317,0 0,53.1496 -645.2317,0 z"
       id="rect3384-1"
       inkscape:connector-curvature="0"
       sodipodi:nodetypes="ccccc" />
    <path
       style="fill:#000000;fill-opacity:1"
       d="m 915.18415,-1534.9123 2382.11815,0 0,53.1572 -2382.11815,0 z"
       id="rect3384-2"
       inkscape:connector-curvature="0"
       sodipodi:nodetypes="ccccc" />
    <rect
       style="fill:#000000;fill-opacity:1"
       id="rect3225"
       width="425.19684"
       height="17.716536"
       x="2550.9429"
       y="-1295.739" />
    <rect
       style="fill:#000000;fill-opacity:1"
       id="rect3225-4"
       width="425.19684"
       height="17.716536"
       x="2550.9429"
       y="-1738.6525" />
  </g>
</svg>
